# xmcd CD database file
#
# Track frame offsets:
#	151
#	25400
#	43240
#	59131
#	59439
#	72537
#	82623
#	94132
#	107702
#	131114
#	144214
#	152569
#	165706
#	184203
#	184526
#	195089
#	208393
#	233485
#	249609
#	276557
#	297333
#	297639
#	313527
#	332856
#
# Disc length: 4682 seconds
#
# Revision: 0
# Processed by: cddbd v1.5.1PL0 Copyright (c) Steve Scherf et al.
# Submitted via: CDex 1.51
#
DISCID=76124818
DTITLE=MystDrF - Lucky Day
DYEAR=2005
DGENRE=Jazz
TTITLE0=Bappi Lahari - Banda Kat Gaye
TTITLE1=Louis Chedid - Hold Up
TTITLE2=Biddu Orchestra - Eastern Journey
TTITLE3=Blank
TTITLE4=The Gass - New Breed
TTITLE5=Fausto Papetti - Sabato Notte
TTITLE6=The Samurai - Fresh Hot Breeze Of Summer
TTITLE7=Francis Bay - Caravan
TTITLE8=Bobby Rydell - Sway
TTITLE9=John Schroeder - All Night
TTITLE10=In Crowd - Things She Says
TTITLE11=Balsara and His Singing Sitars - Tequila
TTITLE12=Plimsoll Line - Memphis Underground
TTITLE13=Blank
TTITLE14=The Ramrods - Overdrive
TTITLE15=The Shadows - My Babe
TTITLE16=Agape - Rejoice
TTITLE17=Joshua - New Life
TTITLE18=Amit Kumar and Sulakshana Pandit - Kya Jame Yeh Dunlya Kya Jane
TTITLE19=Roy Willimas Trinity - Take Me To Your Disco
TTITLE20=Blank
TTITLE21=Charlie Ainley - I Don't Need No Doctor
TTITLE22=Jah Wurzel - Wuthering Heights
TTITLE23=Ram Jam Holder - London Ghetto
EXTD=YEAR: 2005
EXTT0=
EXTT1=
EXTT2=
EXTT3=
EXTT4=
EXTT5=
EXTT6=
EXTT7=
EXTT8=
EXTT9=
EXTT10=
EXTT11=
EXTT12=
EXTT13=
EXTT14=
EXTT15=
EXTT16=
EXTT17=
EXTT18=
EXTT19=
EXTT20=
EXTT21=
EXTT22=
EXTT23=
PLAYORDER=
